<?xml version="1.0" encoding="UTF-8"?>
<svg id="Layer_2" data-name="Layer 2" xmlns="http://www.w3.org/2000/svg" viewBox="0 0 1459.53 1398.44">
  <defs>
    <style>
      .cls-1 {
        fill: #edcc9f;
      }

      .cls-2 {
        fill: #fce7cc;
      }

      .cls-3 {
        fill: #212332;
      }

      .cls-4 {
        fill: #f76f3e;
      }
    </style>
  </defs>
  <g id="Layer_1-2" data-name="Layer 1">
    <g>
      <path class="cls-4" d="M1454.75,666.99c-19.89,141.52-80.99,266.13-186.94,363.04-94.08,86.06-209.12,152.28-319.83,214.51-129.4,72.72-269.37,136.77-418.87,150.87-141.62,13.35-298.13-15.91-404.91-116.14-95.32-89.48-143.02-228.43-106.21-353.84,88.49-36.73,160.21-102.13,230.8-167.2,99.81-92.01,195.96-188.4,302.48-272.81,191.92-152.09,517.98-351.1,759.09-189.61,126.3,84.59,163.71,233.8,144.4,371.19Z"/>
      <path class="cls-2" d="M1230.52,250.13c-78.48-27.2-156.32-29.02-231.74-14.18-22.81.94-45.23,4.29-67.14,9.78,26.65-56.09,31.62-114.13-10.05-165.65-94.23-116.52-274.66-89.53-388.22-22.48-155.53,91.82-280.75,252.65-371.68,405.61C77.45,604.91-11.95,797.5,1.32,967.15c5.46,69.72,37.69,135.96,105.02,163.35,39.27,15.97,80.12,15.65,114.37-3.1,6.65,38.32,24.02,73.47,58.86,98.83,63.22,46.03,152.31,33.33,223.03,16.34,191.24-45.93,388.75-114.13,560.78-209.94,154.7-86.16,315.06-218.39,372.71-392.32,55.39-167.1-43-333.84-205.58-390.19Z"/>
      <path class="cls-3" d="M227.81,1115.94c-12.53-8.46-27.94-.61-38.94,6.35-3.29,2.08-6.3,4.55-9.5,6.75-25.2,9.54-50.94,24.43-43.72,50.92,4.88,17.91,22.15,26.55,38.87,30.36,15.24,3.47,33.21,6.35,47.13-2.71,15.23-9.91,15.96-28.2,16.03-44.53.07-14.79,4.58-37.39-9.87-47.14Z"/>
      <path class="cls-3" d="M1255.55,63.21c-119.84,41.19-230.84,99.35-332.59,174.97-14.02,10.42-.35,34.25,13.85,23.7,100.01-74.33,208.1-131.67,326.04-172.21,16.6-5.71,9.47-32.23-7.3-26.47Z"/>
      <path class="cls-1" d="M927.53,557.34c-36.38-88.89-158.6-54.4-228.86-28.28,34.21-55.06,42.43-127.71-40.18-136.46-105.2-11.15-215.37,45.01-278.57,127.09-43.43,56.4-102.2,175.88-36.96,238.14,47.06,44.91,117.14,20.88,173.52-13.62-24.61,50.71-32.33,109.14,25.02,136.31,91.61,43.4,205.85-27.36,273.09-84.1,66.4-56.03,152.68-141.95,112.93-239.07Z"/>
      <path class="cls-3" d="M595.18,524.18c-7.42-32.52-54.27-18.57-73.11-7.15-32.16,19.5-94.24,78.14-60.11,118.86,14.03,16.74,33.43,3.06,44.15-9.29,19.34-22.28,33.85-40.97,61-54.02,18.96-9.11,31.91-31.55,28.07-48.41Z"/>
      <path class="cls-3" d="M624.84,737.61c9.07,23.64,36.86,23.6,56.7,15.65,33.82-13.54,113.6-82.99,76.44-127.34-14.03-16.75-33.43-3.06-44.15,9.29-19.34,22.29-33.86,40.98-61.02,54.02-18.41,8.84-36.53,26.07-27.98,48.38Z"/>
    </g>
  </g>
</svg>