<?xml version="1.0" encoding="UTF-8"?>
<svg id="Layer_2" data-name="Layer 2" xmlns="http://www.w3.org/2000/svg" viewBox="0 0 1371.48 198.15">
  <defs>
    <style>
      .cls-1 {
        fill: #fff;
      }
    </style>
  </defs>
  <g id="Layer_1-2" data-name="Layer 1-2">
    <g id="Blue_logo" data-name="Blue logo">
      <g>
        <g>
          <path class="cls-1" d="M605.5,108.95h-72.15c2.88,11.31,11.93,17.88,24.67,17.88,9.86,0,19.31-4.53,25.29-11.31l15.62,15.82c-9.04,12.13-25.69,19.32-42.55,19.32-29.61,0-51.18-20.76-51.18-50.36s23.63-50.56,50.96-50.56,49.96,19.52,49.96,48.91c0,2.68-.22,5.97-.62,10.28v.02ZM578.99,91.48c-.82-11.31-10.08-18.5-22.21-18.5-11.1,0-20.55,5.55-23.43,18.5h45.64Z"/>
          <path class="cls-1" d="M644.75,148.21V0h26.91v148.21h-26.91Z"/>
          <path class="cls-1" d="M787.17,108.95h-72.15c2.88,11.31,11.93,17.88,24.67,17.88,9.86,0,19.31-4.53,25.29-11.31l15.62,15.82c-9.04,12.13-25.69,19.32-42.55,19.32-29.61,0-51.18-20.76-51.18-50.36s23.63-50.56,50.96-50.56,49.96,19.52,49.96,48.91c0,2.68-.22,5.97-.62,10.28v.02ZM760.66,91.48c-.82-11.31-10.08-18.5-22.21-18.5-11.1,0-20.55,5.55-23.43,18.5h45.64Z"/>
          <path class="cls-1" d="M874.52,52.21h26.93v96h-26.93v-13.77c-6.36,9.87-18.7,16.24-31.65,16.24-26.51,0-46.24-20.56-46.24-50.36s19.31-50.56,46.86-50.56c12.34,0,24.67,5.34,31.03,15.21v-12.75h0ZM870.59,100.31c0-14.59-11.72-25.49-25.07-25.49s-24.47,11.52-24.47,25.49,10.49,25.28,24.67,25.28,24.87-11.51,24.87-25.28Z"/>
          <path class="cls-1" d="M1110.98,19.14c0-7.54,6.15-13.37,13.46-13.37s13.46,5.83,13.46,13.37-6,13.54-13.46,13.54-13.46-6-13.46-13.54ZM1111.08,148.21V52.21h26.91v96h-26.91Z"/>
          <path class="cls-1" d="M1344.55,52.21h26.93v84.07c0,41.93-21.17,61.47-55.08,61.47-20.55,0-38.45-11.52-46.66-29.4l22.41-9.66c4.1,8.84,13.98,15,24.25,15,17.26,0,28.15-9.67,28.15-34.54v-2.67c-6.98,9.46-20.13,14.18-30.83,14.18-24.67,0-47.06-19.73-47.06-50.57s22.39-50.35,47.06-50.35c10.9,0,23.85,4.52,30.83,13.98v-11.52h0ZM1340.62,100.1c0-14.8-12.34-25.28-24.87-25.28-13.56,0-24.87,11.11-24.87,25.28s11.31,25.49,24.87,25.49,24.87-10.9,24.87-25.49Z"/>
          <path class="cls-1" d="M1092.34,148.21h-26.46v-50.85c0-11.55-9.39-20.94-20.94-20.94s-20.94,9.39-20.94,20.94v50.85h-26.46v-50.85c0-26.14,21.27-47.4,47.4-47.4s47.4,21.27,47.4,47.4v50.85h0Z"/>
          <path class="cls-1" d="M1005.63,57.58c-5.33-3.54-14.59-7.82-28.31-7.82-11.93,0-22.83,6.99-28.17,23.02v-20.56h-26.71v96h26.91v-32.89c0-27.34,9.46-40.29,23.23-40.29,6.9,0,11.9,1.37,15.53,3.15,3.73-8.45,9.85-15.6,17.52-20.61Z"/>
          <path class="cls-1" d="M1253.22,148.21h-26.46v-50.85c0-11.55-9.39-20.94-20.94-20.94s-20.94,9.39-20.94,20.94v50.85h-26.46v-50.85c0-26.14,21.27-47.4,47.4-47.4s47.4,21.27,47.4,47.4v50.85h0Z"/>
          <path class="cls-1" d="M464.28,93.1c0-16.23-5.58-22.69-17.3-22.69s-19.25,7.7-19.25,20.14v57.66h-26.67v-57.5c0-13.35-5.8-20.29-17.22-20.29s-18.97,7.52-18.97,21.33v56.47h-26.55V49.07h26.55l-.16,11.98c5.53-8.88,14.11-13.67,26.32-13.67,13.14,0,22.91,6.28,27.59,17.2,6.2-10.27,17.93-17.2,33.49-17.2,23.95,0,38.71,16.56,38.71,45.41v55.42h-26.55v-55.11h.01Z"/>
        </g>
        <g>
          <path class="cls-1" d="M67.84,198.15c-29.39,0-53.22-23.83-53.22-53.22V48.97c-.12-7.27-.67-13.31-1.2-17.74-1.33-11.01-2.81-14.05-4.47-16.3-2.83-3.83-6.52-5.82-8.95-6.85C17.2-1.78,38.15-.36,52.25,11.34c16.32,13.54,15.7,34.38,15.59,36.88v149.94h0Z"/>
          <path class="cls-1" d="M148.27,48.22c.12-2.49.74-23.34-15.59-36.88C118.57-.36,97.63-1.78,80.43,8.08c2.43,1.03,6.12,3.03,8.94,6.85,1.66,2.25,3.14,5.29,4.47,16.3.54,4.43,1.09,10.48,1.2,17.74v64.89c0,29.39,23.83,53.22,53.22,53.22V48.21h0Z"/>
          <path class="cls-1" d="M228.72,48.22c.12-2.49.74-23.34-15.59-36.88-14.11-11.7-35.05-13.12-52.25-3.26,2.43,1.03,6.12,3.03,8.94,6.85,1.66,2.25,3.14,5.29,4.47,16.3.54,4.43,1.09,10.48,1.2,17.74v19.93c0,29.39,23.83,53.22,53.22,53.22V48.22h0Z"/>
          <circle class="cls-1" cx="202.44" cy="171.83" r="26.32"/>
        </g>
      </g>
    </g>
  </g>
</svg>