<?xml version="1.0" encoding="UTF-8"?>
<svg id="Layer_2" data-name="Layer 2" xmlns="http://www.w3.org/2000/svg" viewBox="0 0 1169.76 1479.75">
  <defs>
    <style>
      .cls-1 {
        fill: #ffcc94;
      }

      .cls-2 {
        fill: #ffead4;
      }

      .cls-3 {
        fill: #f0af78;
      }

      .cls-4 {
        fill: #a86140;
      }

      .cls-5 {
        fill: #e3a171;
      }

      .cls-6 {
        fill: #bc774e;
      }

      .cls-7 {
        fill: #fadec0;
      }
    </style>
  </defs>
  <g id="Layer_1-2" data-name="Layer 1">
    <g>
      <g>
        <path class="cls-2" d="M1136.02,353.78c-3.2,22.33-22.83,53.81-31.4,75.61-22.21,56.51-30.88,120.09-47.51,178.61-16.87,59.4-35.43,118.29-54.93,176.87-22.45,67.45-50.74,133.55-69.52,202.05-19.64,71.63-33.75,145.3-50.55,217.66-3.26,14.06-7.39,29.42-19.27,37.59-.79.54-1.6,1.07-2.42,1.57-21.12,12.85-51.6,11.27-75.06,9.99-29.17-1.6-57.36-.68-87.05.73-47.12,2.25-94.7,2.58-141.57-2.92-21.55-2.52-42.91-6.27-64.03-11.63-51.85-13.16-100.91-35.66-152.39-50.18-14.46-4.07-30.18-9.69-46.78-16.37-81.89-32.88-185.24-91.11-264.07-113.1-5.68-16.5-10.97-33.11-15.85-49.82-34.18-117.06,4.7-255.02,22.37-372.77,17.25-114.98,44.56-225.04,91.32-331.66C171.6,204.99,199.08,97.03,264.38,5.96c1.43-1.99,2.86-3.97,4.29-5.96,58.91,26.21,111.73,64.57,169.85,92.52,43.88,21.11,90.41,36.1,136.75,51.01,80.93,26.05,167.36,41.37,244.15,77.82,79.92,37.93,163.63,67.82,249.53,88.98,23.28,5.74,63.95,15.98,67.61,25.92,2.04,5.54.64,9.28-.54,17.53Z"/>
        <path class="cls-7" d="M872.02,462.01c-3.35-4-7.05-7.04-11.79-9.23-4.13-1.9-7.42-4.66-11.28-6.95-2.53-1.5-3.63-2.33-5.23-4.72-.8-1.2-1.84-2.21-3.21-2.72-2.1-.79-4.37-.46-5.96.86-2.3.37-4.51,1.08-6.48,2.43-3.08,2.1-5.52,5.68-8.21,8.3-6.03,5.88-11.25,12.33-13.93,20.5-.78,2.37-.85,4.82-1.7,7.21-.83,2.32-1.66,4.35-2.04,6.81-.53,3.4-.89,6.89,1.1,9.84,2.3,3.41,6,5.66,8.06,9.12,1.95,3.28,4.01,6.58,7.06,9,6.39,5.07,13.56,2.14,20.48.3,8.61-2.29,11.56-10.67,18.68-14.93,3.73-2.23,8.23-3.11,11.61-5.94,2.68-2.25,5.91-6.24,6.95-9.55,2.51-8.02,1.22-13.97-4.1-20.33Z"/>
        <path class="cls-7" d="M827.58,547.32c-2.49-3.75-6.08-6.53-9.57-9.31-1.89-1.5-3.81-3.01-6.01-3.82-2.75-1.87-4.26-4.49-7.63-5.87-3.43-1.4-7.11-2.08-10.78-2.42-7.61-.7-13.8,1.64-18.97,7.39-6.13,6.82-11.57,15.39-15.87,23.47-2.04,3.83-4.86,7.37-6.72,11.23-1.64,3.41-1.71,8.05-1.28,11.73.31,2.61,1.85,4.68,3.39,6.75,2.23,2.99,3.98,3.29,7.47,3.97,7.39,1.43,15.92,2.59,23.49,2.19,4.17-.22,8.7-.68,12.76-1.75,4.61-1.22,8.73-3.87,13.14-5.63,7.02-2.81,13.6-8.64,17.16-15.42,3.7-7.03,3.9-15.79-.57-22.54Z"/>
        <path class="cls-7" d="M856.24,574.12c-.29-.47-.73-.86-1.37-1.09-5.77-2.08-10.02-5.53-16.03-1.54-2.43,1.61-4.6,3.73-7.14,5.26-2.72,1.63-5.71,2.58-8.32,4.49-4.97,3.62-9.73,9.16-8.86,15.72.8,6.07,6.01,10.83,11.22,13.45,4.9,2.47,12.54,2.76,17.16-.44,5.11-3.53,9.3-9.76,12.14-15.16,2.48-4.72,8.51-17.81,1.2-20.67Z"/>
        <path class="cls-7" d="M1066.24,570.41c-.8-2.71-1.74-4.68-3.9-6.56-.87-.75-1.72-1.21-2.58-1.59.3-1.45-.51-3.19-2.44-3.23-7.07-.13-13.14-1.03-18.98,3.68-2.11,1.7-3.23,4.04-4.67,6.27-2.37,3.67-5.12,6.95-7.2,10.83-2.5,4.68-6.56,11.01-2.36,15.88,1.89,2.19,4.84,3.8,7.39,5.07,3.25,1.62,6.49,3.63,9.78,5.1,4.59,2.06,12.75,2.14,17.36.01,5.32-2.45,7.41-8.16,7.97-13.63.44-4.27.2-8.54.62-12.82.31-3.19-.08-5.91-1-9.02Z"/>
        <path class="cls-7" d="M599.72,1106.07c-2.5-2.8-5.72-4.69-9.27-5.85-2.5-.82-4.89-1.91-7.34-2.76-.35-.52-.91-.96-1.48-1.06-9.08-1.67-18.59.23-27.6.76-8.71.51-17.22,3.99-24.1,9.2-2.37,1.8-4.74,3.49-5.89,6.31-1.44,3.53-1.85,8.74-1.64,12.52.41,7.48,3.67,15.89,9.01,21.24,2.12,2.13,4.75,4.26,7.63,5.24,5.13,1.74,10.29.35,14.39,4.72,2.44,2.59,4.25,4.85,7.89,5.73,4.31,1.04,9.43.52,13.81.25,6.75-.41,14.37-2.6,18.78-8.02,2.58-3.17,4.93-6.49,6.19-10.39,1.52-4.7.82-8.97,1.66-13.71.83-4.71.57-9.37.77-14.13.16-3.84-.17-7.09-2.81-10.04Z"/>
        <path class="cls-7" d="M190.96,899.12c-.69-4.19-1.7-9.03-5.19-10.81-.25-1-1.04-1.81-2.4-1.74-1.93.1-3.7.52-5.61.78-3.1.43-5.74-.33-8.77-.65-3.21-.33-6.31.16-9.22,1.61-6.58,3.28-9.77,9.9-14.14,15.4-4.43,5.58-8.06,12.64-5.72,20,1.86,5.83,7.5,9.57,13.33,10.49,4.03.63,8.27,1.52,12.33,1.83,3.42.26,7.09-.62,10.45-1.13,7.16-1.08,10.05-6.02,12.59-12.32,2.97-7.34,3.62-15.62,2.34-23.46Z"/>
        <path class="cls-7" d="M104.7,814.62c-3.47-5.61-9.59-12.23-16.56-13.72-.2-.37-.49-.72-.93-1-3.45-2.17-6.04-5.38-9.4-7.66-3.3-2.23-7.51-3.53-11.45-3.97-3.23-.36-6.91-.81-9.77,1.02-3.09,1.97-5.83,6-8.01,8.9-2.35,3.13-5.63,6.12-7.07,9.77-1.55,3.93-3.48,7.99-5.96,11.47-4.9,6.87-9.86,15.23-7.94,23.97.67,3.05,1.79,6.69,4.21,8.82,1.34,1.19,2.99,1.9,4.34,3.11,1.38,1.24,2.66,2.57,4.28,3.51,3.4,1.96,6.98,1.67,10.74,2.13,5.44.66,10.18,0,15.62,0,8.84,0,17.01.48,24.49-5.06,3.23-2.38,4.52-5.65,6.7-8.9,2.4-3.58,4.45-7.35,6.48-11.16,1.81-3.37,3.62-7,4.02-10.86.47-4.52-1.58-6.8-3.8-10.38Z"/>
        <path class="cls-7" d="M771.34,688.43c-.6-4.09-1.08-9.2-2.8-13.01-3.01-6.66-11.08-9.7-17.07-12.98-4.4-2.41-9.21-3.87-13.75-5.96-5.07-2.33-9.67-5.06-14.57-7.64-4.16-2.18-7.77-4.98-11.9-7.19-3.92-2.1-8.27-4.9-12.57-6.02-4.66-1.2-8.93-3.63-13.71-4.53-4.42-.83-8.94-2.26-13.41-2.79-4.8-.57-9.61-1.39-14.46-1.38-7.4.02-11.29-3.34-16.87-7.48-2.87-2.13-6.18-2.99-9.66-3.61-5.35-.95-10.31-2.49-14.69-5.86-1.79-1.38-2.68-2.91-4.39-4.22-1.61-1.23-3.96-1.96-5.75-3.13-2.75-1.8-6.67-3.23-9.52-5.5-1.24-7.92-10.01-13.15-16.04-17.2-9.2-6.18-17.04-14.03-25.22-21.54-3.46-3.17-7.7-5.57-10.97-8.9-3.9-3.98-4.84-11.91-7.11-17.07-3.62-8.24-11.44-15.7-18.69-20.8-8.45-5.95-18.02-13.2-28.2-15.77-5.25-1.32-10.38-2.87-15.66-4.17-6.08-1.51-11.84-1.62-18.08-1.9-12.19-.54-24.26-2.96-36.41-4.12-13.21-1.26-26.66-.56-39.92-.57-6.15,0-12.21-1.38-18.3-1.37-5.7,0-11.24,1.8-16.55,3.62-6.57,2.25-13.85,5.94-18.21,11.75-.45.07-.87.39-.92.97-.01.16-.05.31-.07.47-.34.55-.67,1.1-.96,1.69-.17.35-.13.67.01.95-2.08,3.49-6.8,5.41-9.52,8.34-3.58,3.84-5.76,8.47-8.16,13.07-.17.34-.35.67-.53,1.01-4.56,3.19-9.05,6.45-12.19,11.02-5.64,8.21-8.69,17.8-13.83,26.26-2.74,4.51-6.31,8.58-9.23,12.99-3.49,5.26-6.32,10.52-8.85,16.3-2.08,4.75-4.11,9.54-5.23,14.62-1.34,6.06-2.9,11.88-4.48,17.87-2.79,10.6-5.36,21.25-6.53,32.13-1.27,11.81-1.71,23.58-1.45,35.49.2,9.04-.55,18.56.01,27.74-2.16,10.29-4.1,21.05-3.96,31.55.13,9.87,1.65,20.42,4.17,29.98,1.23,4.65,4.26,8.55,6.45,12.77,2.93,5.64,5.13,11.55,6.81,17.67,2.81,10.24,3.17,22.85,8.82,32.03,1.98,3.22,4.3,6.54,6.82,9.36,3.97,4.45,6.69,9.57,10.29,14.27,2.93,3.82,5.01,8.4,8.47,11.79,3.53,3.46,8.06,5.65,12.11,8.41,4.99,3.4,9.94,6.95,14.71,10.65,3.83,2.97,7,6.7,10.87,9.61,9.02,6.77,20.42,9.97,29.72,16.48,3.93,2.75,7.77,4.63,12.06,6.76,1.94.97,3.92,1.41,5.9,2.24,2.37.99,4.28,2.8,6.64,3.87,9.95,4.5,17.71,12.3,27.37,17.4,9.99,5.27,20.58,9.86,30.78,14.7,3.92,1.86,8.24,2.52,12.39,3.66,2.11.58,4.39,1.04,6.45,1.74,2.09.71,3.71,2.51,5.73,3.48,8.87,4.28,18.25,6.63,28.25,6.55,11.18-.09,22.5-4.02,33.45-5.95,6.23-1.1,12.86-.47,19.16-.49,6.44-.01,12.89-.14,19.33.01,4.8.11,9.64.43,14.42-.26,4.91-.71,10.49-.44,15.14-2.44,4.47-1.92,7.81-5.78,11.72-8.55,4.3-3.04,8.74-5.62,12.98-8.8,8.85-6.66,18.77-11.75,27.7-18.36,8.49-6.29,16.57-13.3,24.39-20.4,8.13-7.37,16.02-14.45,21.73-23.94,5.84-9.69,9.87-20.36,14.56-30.62,5.1-11.15,9.61-23.11,16.26-33.43,6.07-9.41,11.07-19.1,15.62-29.3,2.19-4.92,5.26-9.38,7.61-14.22,2.5-5.14,4.09-10.63,6.1-15.96,2.21-5.86,4.9-11.51,7.36-17.27,2.12-4.98,3.04-10.22,4.19-15.48,2.47-11.27,4.16-22.43,4.17-33.99,0-5.61.49-11.53-.33-17.09Z"/>
        <g>
          <path class="cls-3" d="M877.97,469.07c.11-.95,1.42-2.5,1.74-3.54.64-2.1.75-4.29.35-6.45-.8-4.31-3.55-7.65-7.22-9.94-2.31-1.43-4.92-2.18-7.28-3.48-2.19-1.2-4.22-2.96-6.77-3.36-1.32-.21-2.38-.06-3.29.28-3.15-3.31-5-4.84-9.63-5.81-3.52-.74-7.29-2.64-10.97-1.79-2.85.66-4.11,2.63-4.45,5.43-.23,1.93.06,3.91.24,5.83.33,3.5.72,3.48-2.46,4.62-3.17,1.14-6.92,3.16-9.39,5.58-3.21,3.14-3.34,7.63-3.29,11.84.03,3.14.51,6.4-.3,9.48-.66,2.52-1.94,4.76-2.33,7.37-.56,3.71.37,7.16,3.32,9.57,2.87,2.36,7.43,4.02,11.12,4.04,5.04.03,7.36-2.89,10.85-5.8.84-.7,1.6-2.41,3.12-1.79.72.29,1.09,1.97,1.55,2.67,1,1.52,1.95,2.85,3.61,3.72,2.26,1.18,4.52,1.77,6.69,3.18,1.98,1.28,4.12,2.59,6.58,2.36,3.83-.36,5.92-3.5,6.91-6.86.71-2.41.69-3.44,2.58-4.79,1.51-1.07,3.42-1.38,4.88-2.62,2.62-2.24,3.14-5.66,4.22-8.77.64-1.84,1.58-3.76,1.68-5.74.12-2.27-.91-2.72-1.62-4.61-.2-.53-.33-.67-.41-.64Z"/>
          <path class="cls-3" d="M834.81,549.73c-.91-6.43-3.4-13.13-10.36-14.61-4-.85-10.4-1.71-15.14-.25-2.34-.33-4.56-1.19-6.93-1.35-2.34-.16-4.75.03-7.1-.04-3.66-.12-8.11-.71-11.37,1.41-5.22,3.4-5.3,10.78-6.92,16.12-1.13,3.73-3.87,5.82-6.21,8.76-2.15,2.7-3.1,5.54-3.56,8.9-.63,4.61-2.3,13.07,4,14.51,2.98.68,5.5-.99,8.14-2.05,5-2.02,7.76,1.68,12.64,1.94,3.16.17,6.3-.71,8.75-2.75,1.27-1.05,2.39-2.39,3.23-3.81.39-.64.61-1.44,1.01-2.06,1.34-2.05,1.5-1.87,3.87-1.49,4.01.63,6.62,2.47,10.96,1.6,3.99-.8,7.55-3.4,10.4-6.21,5.23-5.15,5.57-11.65,4.58-18.6Z"/>
          <path class="cls-3" d="M864.71,579.88c-.27-.81-.91-1.64-1.81-1.81-2.99-.56-4.72-3.15-7.95-3.14-.52-.92-1.51-1.55-2.83-1.21-3.34.85-6.15,1.13-9.58,1.31-2.24.11-4.65.4-6.83.97-4.99,1.32-5.38,3.72-7.39,7.9-1.47,3.08-4.42,5.21-2.01,8.97,1.12,1.75,3.08,2.24,4.61,3.47,1.73,1.4,2.01,3.48,3.39,5.16,4.74,5.77,13.95,1.7,19.03-1.47,1.47-.92,2.8-1.97,4.1-3.1,2.1-1.82,4.82-2.97,6.58-5.14,2.91-3.6,2.02-7.86.68-11.9Z"/>
        </g>
        <path class="cls-3" d="M609.76,1107.42c-2.48-1.96-6.44-3.78-10.44-4.5-3.17-3.6-8.98-4.89-13.5-5.36-2.86-.29-5.81-.3-8.49.84-4.66,1.97-7.59,5.92-12.54,7.63-4.94,1.71-9.65,2.46-14.79,3.01-3.82.41-7.25,2.4-9.38,5.67-3.33,5.08-4.79,17.7.53,21.88,2.07,1.62,4.05,1.59,5.4,4.26.64,1.27,1.02,2.54,1.97,3.65,2.91,3.4,7.03,1.97,10.93,2.94,3.95.98,8.14,3.24,12.32,2.1,3.47-.94,6.99-7.28,10.48-4.22,2.5,2.19,2.76,4.33,6.65,4.69,3.79.35,9.18-.09,12.64-1.82,3.18-1.58,6.49-4.55,8.18-7.69,1.79-3.33.89-6.22.3-9.69-.58-3.43.38-4.42,1.77-7.26.87-1.78,1.26-3.93,1.59-5.88.7-4.09-.28-7.62-3.6-10.25Z"/>
        <g>
          <path class="cls-3" d="M192.37,888.91c-3.01-1.75-8.12-2.01-12.26-.65-6.84-.21-15.03-.84-18.86,5.98-3.88,6.9-.68,15.34-1.09,22.72-.46,8.37,7.83,7.26,14.26,6.96,3.77-.17,6.92-.88,9.59-3.74,3.2-3.42,3.22-7.49,4.07-11.71,4.17-1.06,6.63-3.55,7.28-8.23.52-3.79.77-9.15-2.98-11.34Z"/>
          <path class="cls-3" d="M111.45,801.67c-4.64-1.67-9.3-2.04-14.19-1.88-1.46.05-2.94,0-4.42-.06-2.32-1.8-4.53-3.35-7.69-3.63-3.43-.31-5.72-3.1-9.06-3.21-2.98-.1-5.55,2.26-7.1,4.59-1.79,2.7-2.54,5.94-3.47,9-1.62,5.34-4.2,7.75-8.7,10.93-7.5,5.29-9.53,11.2-9.05,20.28.44,8.14,6.16,11.47,13.29,14.06,3.32,1.21,6.91,2.2,10.47,1.7,5.02-.7,8.73-5.75,13.81-5.64,4.28.09,7.75,2.77,12.15,1.2,1.7-.61,2.86-1.74,4.33-2.71,1.61-1.06,3.56-1.69,4.95-3.06,2.67-2.64,2.86-6.76,3.8-10.17,1.49-5.38,5.17-9.45,7.84-14.24,3.98-7.13.7-14.41-6.97-17.16Z"/>
        </g>
        <g>
          <path class="cls-3" d="M1004.09,206.92c-.17-2.61.26-4.71-1.96-6.66-1.89-1.66-4.36-1.76-6.74-1.89-1.52-.08-3.39-.38-4.88,0-1.7.45-2.99,1.9-4.72,2.28-1.22.27-2.2.35-3.1.53-.57-.33-1.25-.6-2.08-.79-6.05-1.41-10.28,2.88-14.08,6.91-4.23,4.48-5.87,8.88-4.33,15.07.63,2.51,1.72,5,3.6,6.8.94.9,1.74,1.05,2.7,2.13,1.22,1.36,1.46,2.95,2.54,4.36,2.68,3.49,7.21,2.65,10.72,1.04,5.68-2.63,8.96-8.27,15.56-8.22,4.92.04,8.13-1.37,9.07-6.61,1-5.55-1.95-9.73-2.3-14.97Z"/>
          <path class="cls-3" d="M1073.15,218.6c-6.02-2.35-11.03,2-15.93,4.77-1.97,1.11-3.78,1.94-4.75,4.13-.41.93-.51,1.75-.46,2.53-.87.72-1.66,1.53-2.24,2.32-1.9,2.62-4.23,9.07-2.34,12.11,1.09,1.76,3.3,2.37,5.21,2.62,3.33.44,5.83.09,9.11,1.26,4.51,1.61,10.39,1.01,14.01-2.43,4.26-4.05,3.97-11.77,4.11-17.16.11-4.45-2.29-8.43-6.72-10.16Z"/>
        </g>
        <path class="cls-3" d="M1084.88,582.08c-.24-2.65-1.45-4.16-3.13-4.99.45-1.08.28-2.41-1-3.19-6.16-3.76-9.13-10.85-16.28-13.26-5.65-1.9-14.5-1.85-17.34,4.56-1.41,3.18.03,6.24-.32,9.5-.38,3.52-3,4.91-5.3,7.15-3.48,3.4-5.62,8.95-2.14,13.29,1.83,2.29,5.31,2.89,7.92,3.89,3.78,1.46,7.19,2.3,11.27,1.59,3.05-.53,5.65-1.74,8.02-3.7,1.99-1.64,3.16-2.73,5.84-3.12,1.41-.21,2.86-.13,4.27-.36,5.89-.93,8.74-5.45,8.2-11.35Z"/>
        <g>
          <path class="cls-1" d="M1006.05,1019.69c-1.24-3.34-1.6-6.87-2.54-10.29-1.23-4.45-2.81-8.81-4.56-13.07-8.95-21.87-22.12-38.27-41.36-52.33-8.03-5.86-17.33-11.09-27.26-10.54-5.32.29-11.48.32-17.62.57-6.13.25-12.22.73-17.38,1.97-1.9.46-3.87,1.21-5.76,2.13-1.72.81-3.38,1.75-4.88,2.71-6.99,4.45-11.01,12-12.21,20.06-1.19,8.07-1.62,17.82.82,25.67,1.21,3.89,2.5,7.92,4.27,11.59,1.54,3.15,3.72,5.93,4.96,9.18,2.6,6.87,8.09,13.17,13.42,18.21,20.44,19.31,38.13,45.88,65.09,56.47,2.61,1.02,5.08,1.83,7.44,2.89,8.55,3.83,19.32,9.56,28.82,6.13.93-.34,1.85-.77,2.77-1.3,2.58-1.49,4.49-3.57,5.88-5.96,1.93-3.26,2.93-7.1,3.5-10.89,1.34-8.95,1.15-18,1.32-27.03.16-9.26-1.49-17.52-4.72-26.16Z"/>
          <g>
            <path class="cls-1" d="M1144.75,851.18c-4.14-4.07-8.65-6.8-13.6-8.56-3.9-1.38-8.08-2.16-12.54-2.52-.41-.03-.82-.06-1.23-.09-12.73-.93-25.3-.03-37.47,4.96-9.86,4.05-18.06,11.3-25.36,19.07-13.75,14.65-24.91,32.27-30.92,51.5-6.34,20.29-2.82,38.33-2.12,58.84.28,8.22,1.77,16.96,4.31,24.82,2.28,7.09,7.66,12.88,13.31,17.6,2.2,1.83,4.62,3.42,7.19,4.55,2.74,1.2,5.64,1.87,8.6,1.78,1.86-.05,3.75-.42,5.64-1.15,4.59-1.79,8.43-5.05,12.14-8.31,28.67-25.22,59.68-54.89,71.74-92.21,2.85-8.8,6.62-17.03,7.18-26.43.44-7.44,2.07-14.72,1.86-22.27-.21-7.73-3.11-16.03-8.74-21.58Z"/>
            <path class="cls-5" d="M1120.14,842.86c-5.01,7.64-10.58,15.22-14.91,23.27-2.28,4.24-3.98,8.48-6.73,12.44-1.72,2.47-3.13,5.19-4.37,7.93-3.11,6.92-6.31,13.54-10.41,19.95-4.55,7.11-9.5,13.99-13.74,21.29-4.31,7.43-8.52,14.77-13.16,22.01-4.49,7.01-7.46,14.78-8.79,23.02-1.3,8-2.22,15.96-2.16,24.08.04,5.15-.35,10.35-.24,15.48-.06.13-.1.28-.1.46,0,2.42-.96,8.74,3.37,7.91,3.74-.72,4.34-6.25,5-9.2,1.74-7.82.76-15.88,3-23.67,1.75-6.11,3.53-13.33,6.84-18.73,7.55-12.32,15.06-24.31,21.18-37.42,3.3-7.07,5.96-14.48,8.7-21.78,1.33-3.55,2.73-7.06,4.07-10.6,1.43-3.77,3.4-7.11,5.13-10.76,3.86-8.1,9.09-15.46,13.09-23.45,1.58-3.14,2.14-6.69,3.3-10,1.21-3.47,2.79-8.05,2.86-11.73.02-1.07-1.39-1.35-1.93-.52Z"/>
          </g>
          <g>
            <path class="cls-1" d="M1168.66,1093.92c-.51-1.37-1.1-2.67-1.78-3.9-1.32-2.41-2.96-4.55-4.88-6.42-25.1-24.75-96.91-5.58-121.03,4.68-16.4,6.97-31.66,16.9-44.34,29.45-13.87,13.73-19.22,28.83-28.39,45.04-3.28,5.78-6.19,12.61-4.4,19.07.27.98.64,1.96,1.15,2.91.12.25.26.5.4.74,3.36,5.64,10.06,8.71,16.31,9.79,8.26,1.42,16.81.4,25.04-.77,4.17-.58,8.14-1.69,12.23-2.57,4.63-.99,9.51-1.1,14.21-1.88,18.86-3.11,36.95-9.32,54.81-16.04,8.75-3.29,17.04-7.43,25.5-11.33,7.58-3.49,14.97-6.74,22.24-10.87,9.17-5.21,16.6-11.35,23.1-19.76,2.99-3.86,6.34-8.02,8.48-12.43,1.91-3.92,2.13-8.01,2.23-12.29.12-4.57.75-9.02-.89-13.42Z"/>
            <path class="cls-5" d="M1156.25,1087.34c-7.11,1.78-14.24,3.63-21.24,5.78-7.28,2.23-15.02,1.92-22.39,3.81-7.99,2.05-15.87,4.63-23.92,6.53-7.79,1.83-15.47,1.02-23.12,3.75-6.93,2.48-13.46,5.86-19.82,9.55-8.23,4.77-16.57,9.58-24.99,14.02-7.38,3.89-14.26,7.62-20.63,13.07-7.01,5.99-13.7,12.78-19.91,19.62-2.54,2.8-5.01,5.84-7.18,8.95-1.79,2.57-5.1,6.08-5.72,9.2-.04.19-.02.35.03.51-.11.65.36,1.18,1.01,1.22,5.42.38,9.69-5.07,13.74-7.9,6.61-4.62,12.82-10.1,20-13.86,13.56-7.1,27.06-15.15,39.67-24.01,13-9.14,27.89-16.61,42.92-21.77,3.09-1.06,6.34-1.62,9.29-3.08,3.94-1.95,7.37-4.34,11.61-5.73,6.14-2.01,12.34-2.38,18.65-3.5,3.66-.65,6.98-2.18,10.57-3.04,3.65-.87,7.37-.97,10.95-1.88,3.08-.78,5.76-2.35,8.6-3.72,2.07-1,5.97-1.8,7.15-4.15,2.17-4.33-2.74-4-5.26-3.37Z"/>
          </g>
        </g>
        <g>
          <path class="cls-3" d="M906.43,620.94c-5.11-4.17-11.8-2.75-16.99.33-5.04,2.99-8.67,7.53-12.29,12.11-3.09,3.9-8.07,9.97-13.35,10.02-5.47.04-10.49-2.82-16.12-2.02-6.51.92-10.73,5.83-15.18,10.37-3.86,3.94-7.59,6.82-12.43,9.55-4.49,2.54-9.3,3.29-14.19,4.07-1.59.24-3.17.5-4.76.82-6.76,1.32-13.42,1.39-20.25.88-7.05-.52-13.94,1.18-20.81-1.07-.61-.2-1.21-.41-1.83-.62-5.61-1.92-11.18-4.28-16.95-5.49-7.11-1.5-14.44-1.09-21.61-.48h-.06c-6.34.53-12.82,1.4-19.15.42-2.35-.37-4.69-.77-7.02-1.16-3.29-.56-6.56-1.12-9.87-1.56-.86-.12-1.71-.23-2.57-.33-3.27-.38-6.06-.84-8.71-1.84-1.95-.74-3.81-1.77-5.73-3.28-3.59-2.82-7.49-4.91-11.34-7.14-1.99-1.16-3.97-2.35-5.89-3.69-5.23-3.67-10.65-6.74-16.39-9.49-6.79-3.26-13.64-7.2-21.08-8.5-2.3-.41-4.63-.6-6.95-.72-4.32-.21-8.65-.11-12.96-.44-3.72-.28-6.74-.76-9.14-3.88-5.31-6.9-6.39-16.83-9.88-24.72-2.06-4.67-5.17-8.35-7.66-12.73-3.3-5.8-4.59-13.23-6.47-19.65-1.46-5-2.75-9.4-3.41-14.19-.27-1.84-.43-3.76-.48-5.78-.2-7.43-.38-14.89-.8-22.31-.31-5.37-.95-10.65-1.94-15.9-.3-1.57-.62-3.16-.98-4.73-.84-3.71-1.16-7.37-1.41-11.06-.22-3.25-.37-6.51-.76-9.82-.37-3.14-1.32-6.14-1.88-9.24-.56-3.13-.81-6.26-1.91-9.27-.07-.17-.13-.36-.2-.53-2.15-5.6-5.59-10.74-8.01-16.26-2.77-6.28-4.52-12.86-7.18-19.17-3.01-7.12-3.09-14.36-4.63-21.88-1.07-5.26-3.14-11.29-7.92-14.1-4.73-2.79-10.05-1.46-14.54,1.06-7.75,4.33-14.18,10.97-21.6,15.74-5.43,3.51-9.8,8.25-15.06,11.9-5.46,3.8-11.23,5.72-16.2,10.46-6.26,5.96-12.18,12.75-17.32,19.99-2.82,2.31-5.76,4.49-8.58,6.75-9.6,7.68-20.29,14.96-27.14,25.55-6.57,10.15-9.98,21.74-18.48,30.59-8.97,9.34-17.33,18.24-24.69,29.09-2.73,4.03-5.76,8.26-9.46,11.41-3.84,3.26-8.7,2.84-12.6,5.79-4.45,3.35-5.46,9.33-6.89,14.48-.85,3.02-1.56,5.98-2.11,9.08-.53,3.09-1.87,5.72-2.69,8.71-1.4,5.08.3,11.56-1.99,16.31-1.26,2.61-3.27,4.41-4.25,7.36-.89,2.67-1.41,5.49-1.91,8.26-1.08,6-.6,10.94,2.26,16.35,2.06,3.91,3.33,8.84,1.43,13.17-2.15,4.87-6.27,8.36-8.16,13.5-2.29,6.24-2.02,12.81-1.72,19.37.61,13.12,3.33,25.86,3.5,38.97.09,6.51.17,13.14.76,19.63.53,6,3.13,10.63,4.6,16.3,1.51,5.88-1.01,11.85-2.38,17.51-1.42,5.82-2,11.94-1.39,17.94,1.14,11.09,6.89,23.35,17.36,27.68,3.64,1.51,5.97,2.56,7.82,6.36,1.86,3.86,2.64,8.72,2.37,13.01-.39,6-4.27,11.11-4.37,17.17-.13,6.63,3.7,9.88,8.5,13.37,2.17,1.57,1.96,2.18,3.39,4.66,1.68,2.93,4.12,4.71,6.55,6.9,5.02,4.54,9.5,9.31,15.3,12.83,3.01,1.82,6.57,3.05,9.42,5.15,2.34,1.73,4.03,4.2,5.71,6.56,3.32,4.66,6.72,9.38,12.45,10.77,2.38.58,4.83.34,7.17,1.04,2.63.78,5,2.37,7.72,2.95,5.71,1.22,11.69-.02,17.52-.4.14.29.26.61.41.91.75,1.3,1.65,2.51,2.78,3.51,2.07,1.81,4.68,2.87,7.23,3.67,1.76.56,5.11.57,6.57,1.7,1.53,1.2,1.61,4.51,2.16,6.39,3.49,11.84,12.97,16.35,24.17,16.17,6.5-.1,13-.65,19.49-.99,2.52-.12,6.64-1.02,9.09-.23,2.73.89,5.2,3.69,7.62,5.21,10.91,6.83,24.42,5.1,35.55,11.69,5.76,3.41,11.2,3.46,17.72,3.05,7.11-.44,14.22-.8,21.33-1.16,7-.34,13.94-1.02,20.93-1.5,2.6-.18,5.76-.71,8.32,0,3.02.84,6.31,3.32,8.89,5.12,4.61,3.26,8.66,6.8,14.39,7.62,7.56,1.1,13.95-2.03,20.92-4.35,6.87-2.29,13.98-3.81,21.17-4.39,2.64-.2,5.41-.73,8.04-.55,3.49.24,6.88,1.24,10.41,1.24,14.45.03,27.42-8.85,41.27-11.62,5.71-1.14,10.68-2.11,15.95-4.82,6.38-3.28,12.76-6.47,19.06-9.9,5.17-2.81,10.55-5.78,13.18-11.53,1.08-2.34.9-4.87,1.81-7.2,1-2.52,3.07-4.69,4.32-7.1,2.88-5.54,6.07-7.15,11.76-8.91,6.31-1.96,12.2-2.61,16.67-8.19,3.17-3.95,6.18-8.61,8.97-12.84,3.73-5.66,6.1-12.12,7.8-18.72,1.79-6.92,1.75-13.7,1.91-20.81.06-3.12.58-6,1.06-9.05.58-3.66,1.5-5.23,3.13-8.41,1.5-2.9,2.2-4.79,4.51-7.15,2.03-2.06,4-4.19,6.26-5.99,5.39-4.26,11.98-6.79,17.22-11.22,8.49-7.19,7.94-18.84,13.47-27.84,2.76-4.48,5.92-8.52,7.72-13.57,2.52-7.02,1.51-13.41-.5-20.47-1.82-6.35-1.98-10.03.51-16.18,1.18-2.91,2.27-5.77,4.33-8.12,2.29-2.61,4.02-4.98,5.2-8.37,2.02-5.82,3.9-11.75,4.97-17.85,1.14-6.55.82-13.13,1.49-19.7.38-3.69-.08-7.27.16-10.88.18-2.88,1.13-5.98,1.64-8.81,1.37-7.56,2.47-14.69,2.46-22.41,0-5.44-.22-10.71-4.68-14.34Z"/>
          <path class="cls-1" d="M477.47,684.23c-3.92-8.39-9.32-15.74-13.77-23.8-3.98-7.16-9.36-14.42-15.67-19.73-5.82-4.9-11.73-7.73-19.4-7.38-1.18.06-2.36.21-3.52.46-2.35.53-4.59,1.47-6.52,2.79-2.68-.25-5.36.93-6.78,4.23-5.91,13.72-8.28,30.78-7.25,45.63,1.05,14.9,4.37,29.8,6.7,44.49,1.19,7.58,2.1,15.37,3.92,22.82.88,3.62,1.92,7.19,2.8,10.81.88,3.63,1.19,7.5,2.28,11.05,3.96,12.91,7.25,27.33,15.71,38.2,4.24,5.46,10.06,11.45,17.43,11.73,1.5.06,2.87-.07,4.13-.36,4.76-1.09,8-4.47,11.16-8.75,4.06-5.49,7.18-13.05,9.48-19.45,2.65-7.36,6.06-14.17,7.17-22,1.09-7.68,1.57-15.51,2.28-23.21.66-7.17.86-14.56.52-21.79-.73-15.41-4.09-31.7-10.67-45.76Z"/>
          <path class="cls-1" d="M554.1,518.43c-.4-6.98-1.38-13.82-2.92-20.62-1.58-6.99-1.34-13.83-2.17-20.88-.37-3.14-1.32-6.14-1.88-9.24-.56-3.13-.81-6.26-1.91-9.27-.07-.17-.13-.36-.2-.53-.51.2-1.02.41-1.53.63-6.9,2.88-14.05,4.84-21.02,7.51-5.35,2.06-10.9,4.03-16.12,6.36-6.59,2.94-11.94,5.78-17.4,10.52-4.87,4.24-9.85,8.61-14.4,13.19-4.79,4.82-6.12,10.13-7.75,16.54-1.34,5.3-1.87,10.29.96,15.18,3.21,5.53,7.64,7.27,13.45,9.22,5.71,1.92,11.11,4.51,16.97,5.91,6.49,1.56,13.05,2.74,19.74,3.13,6.46.39,13.13.29,19.6-.03,6.01-.31,11.9.38,17.86.48-.27-1.84-.43-3.76-.48-5.78-.2-7.43-.38-14.89-.8-22.31Z"/>
          <path class="cls-1" d="M693.44,658.67c-3.77,5.66-7.69,11.23-11.44,16.9-3.84,5.77-8.67,10.75-12.39,16.58-4.95,7.76-10.39,15.26-16.71,21.96-2.74,2.91-5.66,5.68-8.77,8.24-10.28,8.49-21.44,15.79-35.4,15.28-14.95-.55-22.61-19.15-23.94-31.79-.71-6.83-.94-14.26-.13-21.09.4-3.31,1.7-6.23,2.66-9.39,1.08-3.53,1.7-7.19,2.46-10.81,1.36-6.5,3.78-12.58,5.77-18.88,1.78-5.68,3.25-11.69,6.05-16.95,1.13-2.12,2.18-4.37,3.31-6.59,2.32.11,4.64.31,6.95.72,7.44,1.29,14.29,5.24,21.08,8.5,5.74,2.75,11.15,5.81,16.39,9.49,5.64,3.95,11.78,6.56,17.23,10.84,1.92,1.5,3.79,2.53,5.73,3.28l21.16,3.73Z"/>
          <path class="cls-5" d="M680.99,656.78c-3.27-.38-6.06-.84-8.71-1.84-1.95-.74-3.81-1.77-5.73-3.28-3.59-2.82-7.49-4.91-11.34-7.14-1.53,1.31-2.97,2.7-4.3,4.13-3.09,3.34-3.69,5.57-5.82,9.47-2.51,4.62-5.66,8.8-8.66,13.1-2.54,3.62-4.27,5.87-5.12,10.2-.95,4.86-1.69,9.69-2.63,14.55-1.18,6.13-.99,19.91,7.02,21.56,3.97.82,9.1-.06,13.03-.53,4.07-.47,8.35-.66,11.72-3.2.74-.56.54-1.62-.33-1.88-.11-.03-.21-.06-.32-.09.56-1.55.76-2.69-.53-5.02-1.17-2.12-3.23-2.44-5.45-3.36-1.67-.71-4.19-1.64-5.38-3.1-3.23-3.97,1.21-6.79,3.32-8.87,3.5-3.43,5.29-7.69,8.71-11.21,3.2-3.28,7.17-5.81,10.55-9.03,3.67-3.48,5.98-8.09,9.6-11.43.94-.87,2-1.74,2.95-2.71-.86-.12-1.71-.23-2.57-.33Z"/>
          <path class="cls-1" d="M738.89,806.38c-4.22-1.66-8.21-1.86-12.69-1.66-4.86.21-9.65-.78-14.56-.57-1.34.06-2.47.39-3.43.92-3.08-.11-6.15-.27-9.21-.43-9.18-.5-18.43.35-27.62.8-17.43.86-34.49,1.47-51.58,5.29-15.52,3.47-30.61,10.51-44.18,18.69-6.83,4.11-12.71,9.31-18.72,14.49-5.58,4.79-6.92,11.86-8.9,18.67-2.31,7.92.98,16.74,7.14,22.08,5.78,5.01,15.8,4.44,22.94,5.97,8.62,1.84,16.72,1.26,25.44.83l26.89-1.33c8.35-.41,16.76-.47,24.96-2.23,8.52-1.82,17.14-3.89,25.47-6.44,14.94-4.6,28.9-11.08,41.26-20.7,3.35-2.6,6.35-5.57,8.89-8.98,2.59-3.47,4.73-5.98,7.77-9.03,5.11-5.1,9.82-12,10.57-19.39.82-8-3.01-14.04-10.46-16.99Z"/>
          <path class="cls-1" d="M692.92,648.21c2.34.48,4.68.95,7.03,1.4,6.36,1.2,12.86.23,19.21-.33,7.17-.66,14.5-1.06,21.62.73,6.41,1.62,12.59,4.86,18.83,7.26,6.89,2.67,13.77.75,20.82,1.41,6.84.64,13.5.61,20.26-.87,1.59-.36,3.18-.64,4.76-.91-.23,1.13-.53,2.27-.87,3.41-2.33,7.74-6.2,15.72-11.82,20.85-.52.47-2.37,2-3.28,2.56-.56.84-1.22,1.76-1.46,2.04-2.6,2.98-6.21,4.72-9.22,7.07-12.24,9.51-27.46,16.04-41.64,20.56-7.16,2.27-14.32,3.63-21.62,5.17-3.47.74-6.69,2.51-10.16,3.36-3.94.95-7.59.74-11.58.55-14.5-.69-28.58-.46-41.02-10.12-.61-.46-1.22-.97-1.83-1.49-5.83-5.06-9.22-10.13-10.07-18.6-.88-8.82,1.34-14.36,6.13-20.9,1.93-2.63,4.18-5.35,5.79-8.23,1.82-3.24,3.09-6.63,5.54-9.36,3.96-4.42,8.72-7.08,13.37-10.06l21.19,4.51Z"/>
          <path class="cls-5" d="M740.79,650.02c-7.12-1.8-14.45-1.39-21.62-.73h-.06c-.29.16-.59.33-.87.5-7.97,4.77-16.34,8.8-24.68,12.67-12.79,5.94-28.87,8.92-38.94,20.69-.59.69-.13,1.71.57,1.99,3.79,1.51,8.49.09,12.22-1.1,5.69-1.8,11.32-3.94,17.04-5.44,10.72-2.81,21.17-6.72,31.94-9.47,11.33-2.89,22.51-6.42,33.86-9.22,2.62-.65,5.1-1.94,7.53-3.36-5.62-2.28-11.22-5.07-17-6.52Z"/>
          <path class="cls-5" d="M551.18,497.81c-.84-3.71-1.16-7.37-1.41-11.06-1.13.33-2.15.76-2.95,1.27-3.92.53-7.78,1.3-11.69,2.49-5.86,1.79-11.34,5.2-16.73,8.03-6.24,3.27-12.32,6.78-19.25,8.55-5.27,1.33-11.26,1.22-16.06,4.06-.6.36-.58,1.18-.13,1.64,2.52,2.6,7.6,2.03,10.89,1.75,6.62-.58,12.88-2.32,19.41-3.13,5.33-.66,9.99-3.04,15.21-4.23,7.09-1.63,14.76-4.23,21.99-4.64.53-.03,1.1-.01,1.69.01-.3-1.57-.62-3.16-.98-4.73Z"/>
          <path class="cls-5" d="M741.77,815.64c-1.52-1.07-3.33-.55-5.1-.22-3.9.74-7.85,1.75-11.65,2.89-3.56,1.07-6.92,2.72-10.48,3.73-3.65,1.03-7.59,1.57-11.32,2.28-13.08,2.47-26.43,4.86-39.63,6.47-6.6.81-13.19,1.68-19.8,2.5-5.93.74-12.14,1.01-17.96,2.33-14.11,3.19-27.16,10.89-40.57,16.15-4.4,1.72-8.87,3.3-13.15,5.3-3.43,1.6-7.53,2.88-10.6,5.09-1.77,1.27-7.46,7.66-4.95,10.06.02.02.04.02.06.04.52.62,1.37,1.07,2.33,1.06,2.31-.03,4.94-2.29,7.17-2.96,3.52-1.07,7.65-2.37,11.24-2.91,7.99-1.2,15.41-4.33,23-7.13,5.73-2.11,11.5-4.36,16.74-7.5,6.31-3.78,13.24-5.22,20.42-6.11,7.7-.95,15.27-2.95,22.74-4.98,6.61-1.8,13.06-3.85,19.9-4.7,6.81-.85,13.66-1.64,20.29-3.47,4.25-1.17,8.38-2.69,12.61-3.93,4.77-1.4,9.44-2.17,14-4.29,3.48-1.62,7.07-2.52,10.62-3.92,2.37-.93,3.98-2.14,4.41-4.77.05-.34-.01-.78-.32-.99Z"/>
        </g>
      </g>
      <g>
        <path class="cls-6" d="M607.06,1258.18c-2.24-7.34-6.78-14.05-11.88-20.77-.03-.06-.06-.12-.12-.19-2.95-3.86-6-7.52-9.14-10.85-2.52-2.64-5.13-5.1-7.8-7.28-4.85-3.98-9.98-7.09-15.58-9.05-8.64-3.08-18.31-3.42-29.51.06-.5.16-.96.31-1.46.47-.12.03-.28.09-.4.16-2.18.68-4.32,1.46-6.5,2.3-.34.12-.68.28-1.03.4-8.36,3.3-16.67,7.49-24.69,12.38-1.34.81-2.64,1.62-3.95,2.46-1.68,1.09-3.33,2.21-4.98,3.3-4.23,2.89-8.3,5.94-12.25,9.17-3.02,2.36-5.94,4.88-8.74,7.43-1.37,1.21-2.64,2.43-3.92,3.67-3.05,2.89-5.97,5.91-8.68,8.96-7.62,8.43-15.17,17.69-21.8,27.43-1.12,1.59-2.15,3.17-3.2,4.76-1.59,2.49-3.11,5.01-4.51,7.56-2.21,3.82-4.23,7.74-6.03,11.69-.06.12-.09.22-.16.34-.59,1.34-1.15,2.74-1.62,4.14-.75,2.15-1.34,4.32-1.68,6.5-.56,3.2-.72,6.44-.28,9.51.34,2.49,1.06,4.85,2.18,7.09,1.46,2.89,3.64,5.53,6.68,7.77,2.74,1.99,5.66,3.42,8.74,4.32.34.09.68.22,1.03.28,1.8.53,3.64.87,5.53,1.09.87.09,1.74.19,2.64.25,8.99.56,18.5-1.21,27.02-2.11,8.64-.93,17.23-1.62,25.75-2.61,2.64-.28,5.25-.62,7.87-.99,1.46-.19,2.95-.4,4.42-.65,4.17-.68,8.33-1.49,12.47-2.46,2.71-.65,5.32-1.37,7.84-2.18,1.43-.44,2.83-.93,4.2-1.43,13.96-4.98,26.15-12.47,38.74-21.24,5.01-3.48,10.14-7.49,14.86-12.03,4.07-3.82,7.87-8.02,11.1-12.53.12-.19.25-.34.37-.53,3.48-4.79,6.25-9.92,8.08-15.36,2.61-7.8,2.36-14.74.37-21.21Z"/>
        <path class="cls-4" d="M599.5,1285.88c.06,3.26-.28,6.16-.9,8.86-.12.19-.25.34-.37.53-3.23,4.51-7.03,8.71-11.1,12.53,2.33-4.29,4.48-8.55,5.5-13.09,1.99-8.8-.68-17.75-1.24-26.59-.65-9.73-4.79-18-11.04-24.28.22,4.51.47,8.89-.44,13.56-1.06,5.35-2.89,11.44-2.11,16.82.5,3.39,1.9,6.5,2.36,9.92.53,3.98-5.69,3.92-6.22,0-.56-4.14-2.71-7.74-2.77-12-.06-3.51,1.06-7.06,1.68-10.48,1.52-8.15,1.03-15.05,1.09-23.04-7.09-4.76-15.73-7.59-24.78-7.99-.93.93-1.99,1.83-3.11,2.71,11.19,8.08,16.73,12.53,19.9,27.27,2.43,11.19,4.2,21.24-1.27,31.56-6.13,11.57-13.53,24.38-22.05,34.3-4.63,5.38-9.55,10.14-13.31,16.04-2.52.81-5.13,1.52-7.8,2.18,1.03-3.05,2.39-6.03,4.45-8.89,5.22-7.34,10.98-13.84,16.29-20.86-2.08,1-4.2,1.96-6.31,3.05-6.47,3.3-12.5,8.15-17.88,13.03-5.44,4.94-9.52,10.82-13.46,16.79-2.61.37-5.22.72-7.87.99,5.13-7.71,9.83-15.64,16.92-22.17,4.73-4.35,10.04-8.86,15.42-12.25,5.57-3.51,12.25-4.85,17.44-8.92.87-.68,1.83-.81,2.74-.62,5.72-9.39,13.37-17.63,12.94-29.14-.62-16.48-7.43-28.42-20.55-37.9-.34-.25-.59-.53-.78-.81-2.33,1.46-4.57,2.71-6.37,3.64-.5,2.43-1.15,4.82-1.9,7.18.37.47.62,1.03.59,1.8-.44,10.42,5.91,20.58,6.22,31.19.19,5.5,1.27,15.36-4.23,18.81-1.83,1.15-4.98-.31-4.66-2.67,1.31-10.54-.84-19.53-3.02-29.14-.87,6.56-1.34,13.06-2.77,19.53-3.51,15.73-9.86,26.12-23.23,35.48-6.69,4.66-11.66,5.29-19.15,7.71-11.72,3.86-21.33,10.82-31.41,17.63-2.43,1.65-4.76,3.45-6.97,5.38-.9-.06-1.77-.16-2.64-.25-1.9-.22-3.73-.56-5.53-1.09,1.34-1.24,2.64-2.46,3.86-3.54,10.01-9.02,23.76-17.57,36.32-22.57,10.51-4.23,18.19-4.91,27.36-12.56,8.89-7.4,12.94-16.7,15.39-27.83,1.9-8.64,1.8-17.51,3.54-26.15,1.12-5.63,3.54-10.91,5.19-16.39-.44.09-.9.09-1.34.16-8.15,12.75-13.59,26.46-23.85,37.97-8.49,9.48-17.85,17.91-28.36,24.97-12.13,8.08-25.47,13.84-37.56,21.92-5.35,3.58-11.57,7.21-17.01,11.66-1.12-2.24-1.83-4.6-2.18-7.09,9.89-8.12,22.17-14.3,31.72-19.12,15.3-7.74,29.6-16.92,41.7-29.17,12.72-12.84,19.62-27.64,28.92-42.38-.28-.19-.59-.31-.84-.53-.5-.47-.84-.96-1.09-1.49-8.96,6.16-18.03,12.06-26.43,19.31-9.76,8.43-18.66,17.54-28.7,25.62-10.2,8.21-21.42,14.05-32.24,21.36-2.95,1.99-6.19,4.04-9.45,6.25.06-.12.09-.22.16-.34,1.8-3.95,3.82-7.87,6.03-11.69,9.79-5.81,19.9-11.1,27.92-17.41,12.44-9.76,23.6-20.93,35.54-31.31,8.21-7.12,17.23-12.66,26.06-18.66-1.55-.12-3.11-.31-4.73-.5-5.41.47-10.76,1.62-16.11,3.2-4.54,1.34-12.19,4.98-17.85,4.88,3.95-3.23,8.02-6.28,12.22-9.17,1.68-1.09,3.33-2.21,5.01-3.3,1.31-.84,2.61-1.65,3.95-2.46,2.46.12,5.22.31,7.99.53,5.5-.62,11.47-.37,17.01.37.16-.06.31-.09.47-.12.06-.22.09-.44.22-.65.96-2.02,3.2-3.58,5.72-4.76-.5-1.71-1.27-3.36-2.39-4.85-1.12-1.4-2.74-2.15-4.32-2.89.34-.12.68-.28,1.03-.4,2.18-.84,4.32-1.62,6.5-2.3.5.4.96.84,1.37,1.37,1.71,2.11,2.89,4.51,3.67,7.03.78-.22,1.49-.37,2.11-.53,1.24-.28,2.8-.5,4.42-.62,4.1-5.16,11.47-6.84,17.82-7.71.65-.09,1.34-.16,1.96-.22,5.63,1.96,10.76,5.07,15.61,9.05-1.8-.65-3.64-1.31-5.85-1.9-5.29-1.37-16.04-1.68-22.05,2.15.72.4,1.34.87,1.83,1.52.9,1.21,1.06,2.52.81,3.86,17.82,2.05,37.22,12.78,43.44,29.73,3.2,8.77,3.02,21.98,3.2,31.44Z"/>
      </g>
      <g>
        <path class="cls-6" d="M867.57,1422.01c-.09-1.74-.5-3.51-1.21-5.32-1.71-4.32-5.16-8.89-10.88-13.62-3.17-2.61-6.69-4.73-10.35-6.53-4.79-2.36-9.67-4.23-14.65-5.97-.47-.12-.65-.25-.96-.34-2.46-.87-4.98-1.74-7.49-2.58-.9-.31-1.8-.62-2.71-.93-5.5-1.83-11.07-3.64-16.67-5.35-2.58-.78-5.16-1.55-7.77-2.3-8.77-2.52-17.69-4.79-26.62-6.69-1.77-.37-3.48-.75-5.25-1.12-5.01-.96-9.92-1.83-14.93-2.55-6.28-.9-12.53-1.59-18.75-2.02-2.36-.16-4.7-.28-7-.37-22.79-.87-45.8,2.49-65.86,12.44-6.19,3.11-12.1,6.81-17.6,11.19-1.06.84-2.08,1.68-3.11,2.58-1.34,1.18-2.67,2.39-3.98,3.67-4.7,4.57-11.91,13.15-16.48,21.67-3.39,6.25-5.32,12.44-3.79,17.01.93,2.74,3.26,6.37,6.34,10.23,6.9,8.64,17.44,18.31,23.38,20.93,1.93.84,3.86,1.65,5.78,2.39,13.46,5.22,27.58,8.43,42.1,10.04,1.4.16,2.77.28,4.17.4,2.02.22,4.04.37,6.06.5,2.77.16,5.57.28,8.36.31,16.39.37,33.05-1.09,49.63-3.79,2.15-.34,4.26-.72,6.41-1.12,8.24-1.55,16.51-3.39,24.63-5.44,8.33-2.15,16.54-4.51,24.56-7.06.25-.06.47-.16.72-.22,3.14-1,6.03-1.96,9.02-2.99,2.8-.93,5.57-1.93,8.3-2.89,14.27-5.13,31.34-14.71,35.63-26.99.72-2.08,1.09-4.26.99-6.5,0-.22,0-.47-.03-.68Z"/>
        <path class="cls-4" d="M867.6,1422.7c.09,2.24-.28,4.42-.99,6.5-1.31-.16-2.61-.28-3.92-.34-12.44-.65-25.12.16-37.59.09-22.14-.12-38.09-5.22-57.8-14.43-4.38-2.05-8.61-4.35-12.84-6.72,2.3,3.61,4.51,7.18,7.12,9.67,10.39,10.04,22.23,17.47,36.54,19.84,3.54.59,2.55,6.13-.84,6.13h-1.87c-.81,0-1.4-.31-1.87-.72-11.47-2.36-19.06-6.93-28.64-14.55-4.98-3.98-9.24-7.68-13.15-12.69-2.39-3.02-7.99-13.68-11.75-15.02-.87-.31-1.4-.87-1.74-1.52-4.14-2.05-8.33-3.95-12.72-5.44-15.76-5.29-36.47-6.09-53.23-6.03-.37.28-.75.59-1.09.84,6.81,3.02,13.09,8.05,17.1,13.71,1.27,1.77,2.49,3.51,3.7,5.22,10.17,5.1,23.01,3.95,33.52,7.87,4.2,1.59,7.96,3.76,11.69,6.25,5.75,3.82,10.73,5.78,16.85,8.36,3.64,1.52,2.05,7.56-1.65,6-5.41-2.3-10.67-3.08-15.58-6.5-5.75-3.95-9.76-7.56-16.82-9.42-6.75-1.8-14.15-2.21-21.14-3.73,2.64,3.02,5.57,5.85,9.14,8.46,6.53,4.79,13.49,9.05,19.93,14.02,16.92,13.09,29.17,24.19,51.83,24.56,11.26.19,22.57-.5,33.86-1.06-.25.06-.47.16-.72.22-8.02,2.55-16.23,4.91-24.5,7.03-2.92.06-5.78.06-8.64.03-13.53-.25-26.18-2.8-37.22-10.85-15.02-10.95-30.1-22.39-44.68-33.92-4.6-3.64-8.24-8.61-11.85-13.59-.22-.16-.47-.28-.68-.44-.87-.62-1.27-1.49-1.34-2.33-5.25-7.12-10.85-13.74-19.62-15.86-1.87,1.09-3.82,2.33-5.85,3.58,4.7,7.28,6.22,15.05,7.59,23.88,2.33,15.17,6.59,27.02,15.76,39.8,7.12,9.89,15.95,16.14,25.81,20.09-2.8-.03-5.6-.16-8.36-.31-2.02-.12-4.04-.28-6.06-.5-3.08-2.05-6.09-4.45-9.08-7.18-7.96-7.34-13.84-16.67-18.41-26.55-4.2-9.17-4.48-19.93-6.44-29.97-.56,1.31-1.24,2.58-2.15,3.82-2.74,3.82-6.16,6.06-7.74,10.88-1.4,4.23-1.52,8.77-1.59,13.22-.06,3.98-6.28,3.98-6.22,0,.06-6.75.56-13.9,3.92-19.9,1.59-2.89,4.04-4.54,6.03-7.06,2.71-3.39,3.36-7.59,3.17-11.75-.03-.75.19-1.31.53-1.77-.62-1.24-1.31-2.46-2.11-3.64-3.67,1.87-7.4,3.2-10.98,3.02-3.82,4.42-8.21,8.27-11.5,13.09-5.75,8.46-10.57,19.56-6.84,29.69,2.33,6.37,14.09,19.81,21.02,21.58,1.24.31,1.93,1.12,2.11,2.08-1.93-.75-3.86-1.55-5.78-2.39-5.94-2.61-16.48-12.28-23.38-20.93-1.27-3.86-1.87-7.71-1.59-11.19,1.31-15.36,11.88-24.13,20.55-34.83-.59-.68-1.03-1.49-1.31-2.49-.37-1.4-.25-2.77.25-4.04,2.05-5.41,10.51-9.42,14.46-11.26,2.05-.93,4.1-1.83,6.22-2.52,1.31-.47,2.64-.87,3.98-1.15,2.99-1.09,6.06-1.8,9.24-1.93,1.15-.03,1.96.47,2.43,1.21.78.16,1.49.37,2.05.72.22.12.37.25.56.37,15.39-7,33.43-7.68,50.71-5.41.5-.62,1.27-1.03,2.27-1.03,6.97-.09,13.68-1.34,20.34-2.86,5.07.72,9.98,1.59,14.96,2.55-6.72,1.37-13.31,3.26-19.99,4.63,4.2,1.03,8.3,2.15,12.22,3.33,19.09,5.85,40.95,10.23,60.88,11.04,4.76.19,9.51.28,14.27.31,5.1,1.74,9.98,3.61,14.68,5.97-8.68-.06-17.38,0-26.27-.03-16.39-.06-34.33-3.7-50.28-7.28-14.65-3.26-28.67-9.58-43.66-11.16-11.63-1.24-27.3-.53-40.52,3.33,11.88.34,24.5,1.34,35.17,3.73,16.29,3.67,28.7,13.09,43.25,20.49,9.08,4.6,19.43,10.23,29.26,13.4.68-.75,1.65-1.24,2.86-1.06,7.4,1.09,13.09-1.71,20.02-3.95,7.96-2.55,16.45-3.08,24.75-3.08,4.01,0,4.01,6.22,0,6.22-10.35,0-19.87,1.49-29.48,5.16,8.89.65,18.13.37,26.27.37,10.04,0,20.99-1.09,31.19,0Z"/>
      </g>
    </g>
  </g>
</svg>