<?xml version="1.0" encoding="UTF-8"?>
<svg id="Layer_1" data-name="Layer 1" xmlns="http://www.w3.org/2000/svg" xmlns:xlink="http://www.w3.org/1999/xlink" viewBox="0 0 400 700">
  <defs>
    <style>
      .cls-1 {
        fill: none;
      }

      .cls-2 {
        fill: #9ec7ef;
      }

      .cls-3 {
        fill: #b8d5f6;
      }

      .cls-4 {
        fill: #c4defb;
      }

      .cls-5 {
        fill: #a7caef;
      }

      .cls-6 {
        clip-path: url(#clippath);
      }
    </style>
    <clipPath id="clippath">
      <rect class="cls-1" width="400" height="700"/>
    </clipPath>
  </defs>
  <g class="cls-6">
    <g id="Artwork_810" data-name="Artwork 810">
      <g>
        <rect class="cls-5" x="0" y="0" width="399.99" height="653.8"/>
        <path class="cls-2" d="M-302.06,128.15c72.3-20.07,148.61-17.88,221.83-4.84,74.17,13.21,145.85,37.97,217.01,63.01,36.18,12.74,72.32,25.6,108.82,37.21,36.2,11.52,72.95,22.72,110.54,27.93,36.5,5.05,72.19,1.67,108.17-5.72,36.3-7.46,72.41-17.54,109.53-19.38,38.93-1.94,76.58,8.01,114.06,17.74,27.52,7.14,55.02,14.28,82.55,21.41-.04.07-.09.14-.13.2-31.27,52.34-59.69,106.56-85.07,162.32-11.34,24.91-22.1,50.13-32.21,75.62H-311.84V131.01c3.26-1,6.54-1.96,9.82-2.88l-.04.02Z"/>
        <path class="cls-3" d="M699.81,234.23c-72.3-20.07-148.61-17.88-221.83-4.84-74.17,13.21-145.85,37.97-217.01,63.01-36.18,12.74-72.32,25.6-108.82,37.21-36.2,11.52-72.95,22.72-110.54,27.93-36.5,5.05-72.19,1.67-108.17-5.72-36.3-7.46-72.41-17.54-109.53-19.38-38.93-1.94-76.58,8.01-114.06,17.74-27.52,7.14-55.02,14.28-82.55,21.41.04.07.09.14.13.2,31.27,52.34,59.69,106.56,85.07,162.32,11.34,24.91,22.1,50.13,32.21,75.62h964.89V237.1c-3.26-1-6.54-1.96-9.82-2.88l.04.02Z"/>
        <path class="cls-4" d="M1154.84,591.94c-15.72,11.86-29.12,25.36-50.27,30.02-21.06,4.64-43.32,1.24-64.03-3.05-18.69-3.87-37.12-8.49-55.98-11.82-17.55-3.1-35.27-5.48-53.08-7.14-36.61-3.4-73.68-3.74-110.32-.44-70.33,6.31-139.74,26.36-195.88,63.82-3.91,2.61-7.72,5.3-11.48,8.06-32.25-35.47-66.68-70.44-110.45-95.87-42.79-24.87-96.56-39.87-148.46-31.99-13.83,2.1-26.29,6.63-39.5,10.46-7.52,2.18-15.54,3.66-23.41,2-7.29-1.53-13.5-5.46-19.34-9.31-22.84-15.07-46.28-29.39-70.69-42.55-48.13-25.95-99.69-48.76-153.44-64.93-15.66-4.71-31.92-8.85-48.5-11.88v277.2h1246.94v-142.11c-33.5,1.9-66.5,10.21-92.1,29.54Z"/>
      </g>
    </g>
  </g>
</svg>