<?xml version="1.0" encoding="UTF-8"?>
<svg id="Layer_2" data-name="Layer 2" xmlns="http://www.w3.org/2000/svg" viewBox="0 0 117.75 379.53">
  <defs>
    <style>
      .cls-1 {
        fill: #c1d9eb;
      }

      .cls-2 {
        fill: #fff;
      }

      .cls-3 {
        fill: #ff8f7d;
      }

      .cls-4 {
        fill: #404461;
      }

      .cls-5 {
        fill: #290c0c;
      }
    </style>
  </defs>
  <g id="Layer_2-2" data-name="Layer 2">
    <g>
      <path class="cls-1" d="M117.75,152.66v207.12c0,9.79-6.79,17.73-15.18,17.73l-25.79,1.49c-5.71.33-11.44.5-17.16.53-.25,0-.5,0-.75,0s-.49,0-.75,0c-5.72-.03-11.45-.21-17.16-.54l-25.79-1.49c-8.38,0-15.17-7.94-15.17-17.73v-207.12c0-23.86,26.43-91.01,34.23-106.09,5.45-10.53,5.24-21.46,5.24-21.46,0-3.99-1.06-3.38,2.37-3.38h34.06c3.42,0,4.4-2.26,4.4,1.73,0,0-1.65,12.58,3.15,22.94,6.99,15.1,34.3,82.3,34.3,106.25Z"/>
      <path class="cls-4" d="M2.09,332.83c2.16,1.16,4.45,2.04,6.79,2.76,3.84,1.18,7.8,1.93,11.76,2.58,3.78.24,7.56.28,11.35.28,1.5,0,2.43.88,2.8,1.98,7.12,1.1,14.26,2.09,21.47,2.56,11.59.77,23.08,0,34.56-1.68,5.05-.74,10.04-1.77,15.06-2.66,4.11-.73,8.3-1.22,11.87-3.47v-182.52c0-1.68,0-2.6-.18-4.16-6.99,5.15-15.44,7.37-24.01,8.78-10.75,1.76-21.59,3.56-32.48,4.12-12.39.63-24.83-.33-37-2.71-8.21-1.61-17.22-3.31-23.98-8.52-.06.88-.09,1.72-.09,2.5v178.96c.71.37,1.38.84,2.09,1.22Z"/>
      <path class="cls-4" d="M84.41,4.79v21.84c0,.77-.64,1.49-1.74,1.91-4.17,1.62-12.82,2.72-22.83,2.72-10.69,0-19.84-1.26-23.63-3.06-.92-.44-1.43-1.09-1.43-1.78V4.67c0-.76.63-1.47,1.69-1.9,3.22-1.28,9.25-2.25,16.57-2.61.29-.02.59-.03.88-.04.8-.02,1.62-.05,2.44-.07.71-.02,1.42-.02,2.14-.03.45,0,.88,0,1.34,0,10.36.03,19.21,1.25,23.05,2.98.96.43,1.52,1.11,1.52,1.81Z"/>
      <path class="cls-4" d="M84.41,4.79v.68c-4.17,1.34-13.36,2.26-24.02,2.26-12.34,0-22.7-1.24-25.6-2.91v-.15c0-.76.63-1.47,1.69-1.9,3.22-1.28,9.25-2.25,16.57-2.61.29-.02.59-.03.88-.04.8-.02,1.62-.05,2.44-.07.71-.02,1.42-.02,2.14-.03.45,0,.88,0,1.34,0,10.36.03,19.21,1.25,23.05,2.98.96.43,1.52,1.11,1.52,1.81Z"/>
      <path class="cls-3" d="M117.29,146.51c-4.38,4.33-17.94,7.03-27.6,8.61-28.57,4.65-72.86,2.89-89.45-6.95-.16,1.62-.25,3.13-.25,4.49v13.47c18.83,6.88,39.49,7.12,59.49,6.01,20.3-1.14,41.65-3.92,58.26-16.1v-3.38c0-2.28,0-3.16-.45-6.14Z"/>
      <path class="cls-3" d="M100.62,176.76c-10.03,8.08-19.72,15.42-32.28,19.11-12.48,3.67-24.71,3.17-37.16-.21-10.38-2.82-20.62-4.62-31.18-5.53v30.72c11.05,2.52,22.11,5.09,33.22,7.31,12.17,2.42,25.18,3.83,37.16-.34,19.73-6.86,29.83-28.01,47.37-37.73v-23.77c-6.11,2.58-11.77,6.14-17.13,10.46Z"/>
      <path class="cls-3" d="M59.07,179.65c-5.78-3.01-15.23-2.13-21.15,0-5.28,1.91-4.88,7.55-.44,9.29,6.98,2.73,15.21,2.65,22.08-.41,4.53-2.02,3.38-6.86-.5-8.88Z"/>
      <path class="cls-3" d="M106.39,213.58c-3.34,4.28-7.43,12.48-1.61,16.67,2.64,1.9,6.18,1.49,8.94.1,1.36-.68,2.7-1.51,4.02-2.42v-26.83c-3.21,4.54-7.93,8.12-11.35,12.48Z"/>
      <path class="cls-3" d="M102.66,320.29c-8.02,6.09-16.34,11.42-26.06,14.31-9.76,2.9-20.14,3.91-30.26,2.83-9.8-1.04-18.76-5.35-27.97-8.55-5.99-2.08-12.13-3.88-18.37-4.97v15.02c6.97,6.1,34.44,8.04,58.28,8.17,20.89.12,51.52-2.07,59.47-6.73v-29.94c-5.4,2.61-10.28,6.23-15.08,9.87Z"/>
      <path class="cls-3" d="M47.65,307.31c-1.76-1.35-3.91-2.32-5.78-2.77-5.43-1.31-13.76-2.41-19.09-4.12-6.61-2.12-19.38-6.3-22.78-9.72v19.17c5.6,3.08,14.94,6.92,32.18,10.17,5.24.99,16.02,1.88,18.54-4.35,1.38-3.41-.41-6.34-3.08-8.38Z"/>
      <path class="cls-5" d="M37.09,5.75c1.58,2.02,4.56,2.05,6.89,2.29,3.29.34,6.59.6,9.89.79,3.3.19,6.61.3,9.92.34,3.02.03,6.05.02,9.05-.3,3.26-.36,6.46-1.09,9.43-2.5.59-.28.07-1.15-.51-.87-5.21,2.47-11.09,2.71-16.76,2.68-6.28-.03-12.55-.34-18.8-.92-1.63-.15-3.28-.26-4.89-.52-1.32-.21-2.65-.59-3.51-1.69-.4-.51-1.11.21-.71.71h0Z"/>
      <path class="cls-5" d="M39.8,35.57c1.1,1.63,3.14,1.85,4.94,2.09,2.4.32,4.82.55,7.24.67,4.96.25,9.93.08,14.86-.51,2.77-.33,5.52-.79,8.25-1.38.63-.14.37-1.11-.27-.97-9.11,1.97-18.52,2.47-27.79,1.47-1.26-.14-2.53-.26-3.78-.51-.97-.19-2-.5-2.58-1.36-.36-.54-1.23-.03-.87.51h0Z"/>
      <path class="cls-5" d="M5.19,365.24c4.8,3.49,10.68,4.82,16.49,5.37,3.07.29,6.15.38,9.23.46,3.59.1,7.18.19,10.77.29,7.26.2,14.52.39,21.79.59,7.2.19,14.4.4,21.6.35,8.05-.06,16.11-.48,24.09-1.59.64-.09.37-1.06-.27-.97-14.14,1.97-28.45,1.67-42.68,1.28-7.17-.19-14.35-.39-21.52-.58-6.73-.18-13.49-.21-20.21-.62-6.56-.4-13.34-1.5-18.78-5.45-.53-.38-1.03.49-.51.87h0Z"/>
      <path class="cls-2" d="M40.39,48.83c-5.51,15.37-11.03,30.74-16.54,46.11-5.29,14.75-10.9,29.49-11.79,45.3-.24,4.24,6.36,4.23,6.6,0,.89-15.67,6.86-30.44,12.1-45.06l16-44.6c1.44-4-4.94-5.73-6.36-1.75Z"/>
    </g>
  </g>
</svg>